<?xml version="1.0" encoding="UTF-8"?>
   <svg xmlns="http://www.w3.org/2000/svg" width="195" height="39" viewBox="0 0 195 39" fill="none">
<path d="M0.44 2H6L10.84 22.76H11.08L17.48 2H22.32L28.72 22.76H28.96L33.84 2H39.4L32.2 30.04H25.52L20.04 11.92H19.8L14.32 30.04H7.64L0.44 2ZM50.0403 30.32C47.827 30.32 45.9603 29.8133 44.4403 28.8C42.9203 27.76 41.787 26.4133 41.0403 24.76C40.3203 23.08 39.9603 21.28 39.9603 19.36C39.9603 17.44 40.3203 15.6533 41.0403 14C41.787 12.32 42.9203 10.96 44.4403 9.92C45.9603 8.88 47.8403 8.36 50.0803 8.36C53.0403 8.36 55.387 9.30667 57.1203 11.2C58.8803 13.0933 59.7603 15.8267 59.7603 19.4V20.92H45.2803V21.24C45.2803 22.52 45.7203 23.6267 46.6003 24.56C47.4803 25.4667 48.587 25.92 49.9203 25.92C50.9603 25.92 51.8403 25.68 52.5603 25.2C53.2803 24.72 53.8003 24.0667 54.1203 23.24H59.5603C59.0003 25.32 57.907 27.0267 56.2803 28.36C54.6536 29.6667 52.5736 30.32 50.0403 30.32ZM54.4403 17.32C54.387 15.64 53.9603 14.4 53.1603 13.6C52.3603 12.8 51.307 12.4 50.0003 12.4C48.6136 12.4 47.5203 12.84 46.7203 13.72C45.9203 14.6 45.4936 15.8 45.4403 17.32H54.4403ZM73.7672 30.36C71.5272 30.36 69.5939 29.92 67.9672 29.04C66.3672 28.1333 65.1539 26.9733 64.3272 25.56C63.5005 24.1467 63.0872 22.6533 63.0872 21.08V20.84H69.1672V21.08C69.1672 21.7467 69.3272 22.4267 69.6472 23.12C69.9939 23.7867 70.5139 24.3467 71.2072 24.8C71.9272 25.2533 72.8072 25.48 73.8472 25.48C75.1539 25.48 76.2072 25.1467 77.0072 24.48C77.8339 23.8133 78.2472 22.92 78.2472 21.8C78.2472 20.84 77.9005 20.08 77.2072 19.52C76.5405 18.9333 75.7139 18.5467 74.7272 18.36L71.3272 17.64C69.5672 17.2933 67.8739 16.5467 66.2472 15.4C64.6205 14.2267 63.8072 12.32 63.8072 9.68C63.8072 7.97333 64.2205 6.50667 65.0472 5.28C65.8739 4.02667 67.0205 3.08 68.4872 2.44C69.9539 1.77333 71.6205 1.44 73.4872 1.44C75.6205 1.44 77.4472 1.85333 78.9672 2.68C80.5139 3.50667 81.6739 4.57333 82.4472 5.88C83.2472 7.18667 83.6472 8.57333 83.6472 10.04V10.2H77.5672V10.08C77.5672 9.12 77.2205 8.22667 76.5272 7.4C75.8605 6.54667 74.7805 6.12 73.2872 6.12C72.0605 6.12 71.1005 6.45333 70.4072 7.12C69.7139 7.76 69.3672 8.58666 69.3672 9.6C69.3672 10.56 69.7139 11.32 70.4072 11.88C71.1272 12.44 72.0072 12.8267 73.0472 13.04L76.4072 13.76C78.4605 14.2133 80.2472 15.0533 81.7672 16.28C83.2872 17.5067 84.0472 19.3067 84.0472 21.68C84.0472 23.3867 83.6072 24.9067 82.7272 26.24C81.8472 27.5467 80.6205 28.56 79.0472 29.28C77.5005 30 75.7405 30.36 73.7672 30.36ZM100.381 30.32C98.5946 30.32 97.1946 29.9067 96.1813 29.08C95.1679 28.2533 94.4213 27.3467 93.9413 26.36H93.6213V38.32H88.0613V8.88H93.6213V12.16H93.9413C94.3679 11.2533 95.0879 10.4 96.1013 9.6C97.1146 8.77333 98.5279 8.36 100.341 8.36C103.035 8.36 105.101 9.36 106.541 11.36C108.008 13.36 108.741 16.04 108.741 19.4C108.741 22.68 108.008 25.32 106.541 27.32C105.101 29.32 103.048 30.32 100.381 30.32ZM98.3813 25.92C99.9813 25.92 101.168 25.28 101.941 24C102.741 22.72 103.141 21.1733 103.141 19.36C103.141 17.6 102.741 16.0933 101.941 14.84C101.168 13.56 99.9813 12.92 98.3813 12.92C96.8079 12.92 95.6213 13.56 94.8213 14.84C94.0213 16.12 93.6213 17.64 93.6213 19.4C93.6213 21.1867 94.0213 22.72 94.8213 24C95.6213 25.28 96.8079 25.92 98.3813 25.92ZM122.306 30.32C120.093 30.32 118.226 29.8267 116.706 28.84C115.213 27.8267 114.093 26.4933 113.346 24.84C112.599 23.1867 112.226 21.3733 112.226 19.4C112.226 17.4267 112.586 15.6133 113.306 13.96C114.053 12.28 115.186 10.9333 116.706 9.92C118.226 8.90667 120.093 8.4 122.306 8.4C124.519 8.4 126.386 8.90667 127.906 9.92C129.426 10.9067 130.559 12.2267 131.306 13.88C132.053 15.5333 132.426 17.3467 132.426 19.32C132.426 21.2933 132.053 23.12 131.306 24.8C130.559 26.4533 129.426 27.7867 127.906 28.8C126.386 29.8133 124.519 30.32 122.306 30.32ZM122.306 25.84C123.853 25.84 125.013 25.2267 125.786 24C126.586 22.7467 126.986 21.1867 126.986 19.32C126.986 17.4533 126.586 15.92 125.786 14.72C125.013 13.4933 123.853 12.88 122.306 12.88C120.759 12.88 119.599 13.4933 118.826 14.72C118.053 15.92 117.666 17.4533 117.666 19.32C117.666 21.1867 118.053 22.7467 118.826 24C119.626 25.2267 120.786 25.84 122.306 25.84ZM136.503 8.88H141.983V12.24H142.263C142.609 11.3067 143.249 10.52 144.183 9.88C145.116 9.21333 146.316 8.88 147.783 8.88C148.343 8.88 148.823 8.93333 149.223 9.04L148.983 14.12C148.316 13.9333 147.609 13.84 146.863 13.84C145.209 13.84 143.983 14.28 143.183 15.16C142.383 16.0133 141.983 17.44 141.983 19.44V30H136.503V8.88ZM159.731 13.2V22.6C159.731 23.5333 159.771 24.2267 159.851 24.68C159.958 25.1333 160.225 25.4933 160.651 25.76C161.078 26.0267 161.771 26.16 162.731 26.16C163.291 26.16 163.865 26.1067 164.451 26V29.84C164.158 29.8933 163.625 29.96 162.851 30.04C162.105 30.12 161.371 30.16 160.651 30.16C158.705 30.16 157.251 29.88 156.291 29.32C155.358 28.7333 154.771 28.0133 154.531 27.16C154.291 26.28 154.171 25.16 154.171 23.8V13.2H150.651V8.88H154.211V2H159.731V8.88H164.451V13.2H159.731ZM176.487 30.32C174.701 30.32 173.154 29.9867 171.847 29.32C170.567 28.6533 169.594 27.7867 168.927 26.72C168.261 25.6267 167.927 24.48 167.927 23.28V23.04H173.327V23.28C173.327 24 173.607 24.64 174.167 25.2C174.727 25.76 175.541 26.04 176.607 26.04C177.487 26.04 178.194 25.84 178.727 25.44C179.287 25.0133 179.567 24.44 179.567 23.72C179.567 23.08 179.327 22.5733 178.847 22.2C178.367 21.8267 177.767 21.5867 177.047 21.48L174.647 21C173.074 20.7067 171.647 20.08 170.367 19.12C169.087 18.16 168.447 16.7067 168.447 14.76C168.447 12.76 169.181 11.2 170.647 10.08C172.114 8.93333 173.994 8.36 176.287 8.36C177.967 8.36 179.421 8.66667 180.647 9.28C181.874 9.89333 182.807 10.7067 183.447 11.72C184.087 12.7067 184.407 13.7733 184.407 14.92V15.08H179.007V14.96C179.007 14.32 178.767 13.7333 178.287 13.2C177.807 12.64 177.074 12.36 176.087 12.36C175.261 12.36 174.594 12.5733 174.087 13C173.581 13.4267 173.327 13.9867 173.327 14.68C173.327 15.32 173.581 15.8267 174.087 16.2C174.621 16.5733 175.274 16.8267 176.047 16.96L178.687 17.48C180.394 17.8533 181.834 18.5333 183.007 19.52C184.181 20.48 184.767 21.8533 184.767 23.64C184.767 24.9733 184.407 26.1467 183.687 27.16C182.967 28.1733 181.967 28.96 180.687 29.52C179.434 30.0533 178.034 30.32 176.487 30.32ZM188.853 3.12V0.719998H194.533V3.12L193.653 20.76H189.653L188.853 3.12ZM191.693 30.4C190.839 30.4 190.133 30.1067 189.573 29.52C189.013 28.9333 188.733 28.2267 188.733 27.4C188.733 26.5733 189.013 25.8667 189.573 25.28C190.133 24.6933 190.839 24.4 191.693 24.4C192.546 24.4 193.253 24.6933 193.813 25.28C194.399 25.8667 194.693 26.5733 194.693 27.4C194.693 28.2267 194.399 28.9333 193.813 29.52C193.253 30.1067 192.546 30.4 191.693 30.4Z" fill="#211A2C"/>
</svg>